<svg xmlns="http://www.w3.org/2000/svg" viewBox="402 73 572 625" width="44" height="32" aria-label="doublerobert logo" role="img">
  <title>doublerobert logo</title>
  <path fill="#fff" opacity="1.000000" stroke="none" d=" M795.764343,188.639191 C803.539185,193.045563 811.064270,197.401840 818.942505,201.820129 C819.295654,201.882126 819.351379,201.965668 819.601562,202.187225 C822.144775,203.637817 824.437866,204.866867 826.862793,206.340668 C827.335388,206.695511 827.676147,206.805573 828.253540,207.167084 C830.090515,208.301453 831.705322,209.159485 833.289246,210.071030 C855.617188,222.920959 877.963257,235.739410 900.257629,248.647293 C914.778992,257.054779 929.223572,265.594879 943.732422,274.538330 C943.749390,314.828735 943.757080,354.656464 943.707642,394.484070 C943.696716,403.306000 943.484131,412.127625 943.364380,420.949402 C920.894104,434.229462 898.418152,447.499969 875.955872,460.793640 C864.827576,467.379669 853.724609,474.008484 842.104187,480.918854 C848.104919,491.441803 853.910400,501.672729 859.763062,511.876648 C880.362854,547.791626 900.962158,583.706909 921.595886,619.602417 C931.640564,637.076660 941.774353,654.499573 951.825378,671.970154 C952.802612,673.668762 953.479431,675.540222 953.685120,677.662048 C901.726685,677.969788 850.378784,677.947021 799.030884,677.924194 C793.211243,667.745667 787.391541,657.567139 781.240356,646.839844 C778.810669,642.716797 776.712341,639.142517 774.614075,635.568237 C774.614075,635.568237 774.628967,635.502869 774.599609,635.486694 C770.733276,628.610718 766.896301,621.750977 762.828857,614.635559 C761.304504,612.000488 760.010559,609.621094 758.439819,607.051392 C747.657837,588.244324 737.267212,569.561401 726.573059,551.053772 C723.615173,545.934692 721.381958,540.992615 721.729553,534.848389 C722.179260,526.900696 721.917175,518.912781 721.993652,510.474854 C770.534729,481.255402 819.051514,452.516235 867.547424,423.742157 C879.564758,416.611877 891.576843,409.467621 903.421875,402.058807 C905.005188,401.068512 906.491455,398.479248 906.497437,396.625549 C906.602417,363.976501 906.399048,331.326538 906.490723,298.677399 C906.500793,295.105865 904.669861,293.660522 902.167236,292.230255 C884.400146,282.076202 866.632935,271.922363 848.864929,261.769806 C836.153931,254.506821 823.441650,247.246002 810.219604,239.683411 C809.179749,239.166443 808.650269,238.950272 807.954712,238.480438 C807.242920,237.969543 806.697266,237.712311 805.876587,237.248718 C803.821106,236.041901 802.033020,235.054825 800.261414,234.038925 C764.959290,213.796219 729.670654,193.529770 694.350342,173.318848 C685.287476,168.132874 676.125549,163.119904 666.558899,158.101227 C665.973633,159.818832 665.722839,161.462509 665.720337,163.106583 C665.632019,220.911133 665.546143,278.715729 665.513123,336.520294 C665.504456,351.667847 665.670044,366.815460 665.613647,382.409119 C665.407776,384.989319 664.997864,387.182587 665.350830,389.245361 C666.125793,393.774628 663.901550,396.012756 660.200500,397.994171 C655.906799,400.292847 651.955566,403.231262 647.897705,405.921631 C647.939697,405.951263 647.900085,405.856445 647.556641,405.930542 C644.083862,407.956421 640.954468,409.908264 637.871338,411.889923 C637.917603,411.919739 637.872131,411.819489 637.520996,411.883698 C634.420959,413.536530 631.672058,415.125153 628.706665,416.239075 C628.428040,414.935638 628.310547,414.106842 628.311218,413.278137 C628.397095,307.831573 628.489441,202.385040 628.612000,96.938515 C628.613525,95.644508 629.009155,94.350960 629.220825,93.057190 C635.511414,96.390137 641.801941,99.723083 648.556335,103.399803 C654.166748,106.882355 659.234924,110.160309 664.485168,113.114731 C668.502930,115.375557 672.750732,117.227440 676.896240,119.261230 C680.606262,121.525040 684.316223,123.788857 688.383301,126.084732 C690.025146,127.273972 691.152954,128.703232 692.617920,129.547668 C716.101929,143.085007 739.628967,156.547699 763.493286,170.090729 C763.840454,170.154068 763.863892,170.102615 764.024414,170.409607 C766.425415,171.860214 768.665894,173.003799 770.906433,174.147400 C770.906433,174.147400 770.941528,174.061279 771.059753,174.376984 C772.770264,175.500763 774.362549,176.308853 775.954834,177.116943 C776.417297,177.447998 776.879822,177.779037 777.820435,178.434921 C780.484070,179.909073 782.669556,181.058365 784.855042,182.207672 C784.855042,182.207672 784.895142,182.105423 785.046631,182.410950 C787.429626,183.863800 789.661011,185.011154 791.892456,186.158493 C791.892456,186.158493 791.934692,186.091049 792.061279,186.357681 C792.754822,186.885788 793.321838,187.147263 793.888855,187.408752 C794.430786,187.802200 794.972717,188.195648 795.764343,188.639191 M827.961609,530.131104 C822.234680,520.052612 816.507751,509.974152 810.667725,499.696655 C793.958801,509.574677 777.676453,519.252869 761.328552,528.818909 C758.224915,530.635010 758.383118,532.524963 760.000977,535.316528 C768.669312,550.273865 777.169128,565.328735 785.793457,580.311707 C791.756897,590.672058 797.827515,600.970703 803.966797,611.978760 C808.831604,620.483582 813.557129,629.074097 818.685913,637.416687 C819.640625,638.969666 822.206238,640.389099 824.045166,640.410278 C844.494751,640.646057 864.947693,640.599854 885.399719,640.608582 C886.821350,640.609192 888.243103,640.441528 890.701965,640.286865 C879.260071,620.362000 868.222046,601.140503 857.045166,581.229675 C855.735901,578.994751 854.407532,576.770752 853.120483,574.523132 C845.482178,561.184448 837.853516,547.840332 830.092834,533.889221 C829.419617,532.863220 828.746460,531.837158 827.961609,530.131104 z"/><path fill="#fff" opacity="1.000000" stroke="none" d=" M700.033386,442.001465 C691.100281,447.714325 682.378845,453.802643 673.155884,459.001282 C667.489563,462.195099 665.174316,465.676208 665.206909,472.561646 C665.522217,539.149841 665.340576,605.740234 665.435974,672.329834 C665.441956,676.514465 664.584167,678.300537 659.960205,678.032715 C652.991821,677.629028 645.982605,677.931946 638.526428,677.930359 C638.062134,677.926270 638.046143,677.975098 637.877075,677.699951 C636.627808,676.777039 635.547546,676.129272 634.467285,675.481445 C634.467285,675.481445 634.370667,675.613281 634.165405,675.312256 C632.659424,674.314270 631.358643,673.617310 630.057922,672.920349 C630.057922,672.920349 630.020142,673.003174 629.877319,672.710571 C628.814758,671.971436 627.895020,671.524902 626.975342,671.078308 C626.975342,671.078308 626.966370,671.010925 626.758545,670.768311 C625.800232,670.183411 625.049805,669.841187 624.299377,669.498962 C624.299377,669.498962 624.287109,669.596069 624.122620,669.349365 C623.028625,668.634888 622.099060,668.167114 621.169556,667.699402 C621.169556,667.699402 621.170959,667.783508 621.011719,667.503540 C618.717224,665.977295 616.581970,664.730896 614.446716,663.484497 C614.446716,663.484497 614.295105,663.875916 614.117188,663.447876 C611.341187,661.590454 608.743042,660.161133 606.144897,658.731750 C606.144897,658.731750 606.151733,658.819641 606.009766,658.553101 C605.291443,658.052673 604.715027,657.818909 604.138611,657.585083 C604.022522,657.276794 603.804382,657.084045 603.072815,656.712524 C599.447632,654.603699 596.233826,652.789001 593.019958,650.974304 C593.019958,650.974304 593.002441,651.000000 592.808594,650.734863 C591.093994,649.622009 589.573120,648.774231 588.052307,647.926453 C588.052307,647.926453 588.025330,648.005188 587.839722,647.713745 C585.882324,646.466492 584.110474,645.510620 582.338562,644.554749 C582.338562,644.554749 582.126770,644.795288 582.035034,644.444641 C579.962891,643.066650 577.982483,642.039246 576.002075,641.011841 C576.002075,641.011841 575.890930,640.778931 575.546509,640.505859 C573.153198,639.128967 571.104370,638.025024 569.055542,636.921143 C569.055542,636.921143 569.023438,637.002747 568.853638,636.707214 C567.138184,635.586304 565.592529,634.760925 564.046814,633.935547 C564.046814,633.935547 564.018677,634.005676 563.860413,633.728271 C562.801331,633.002319 561.900574,632.553711 560.999756,632.105164 C560.380005,631.712341 559.760193,631.319580 558.661682,630.606995 C557.574707,630.005066 556.966492,629.722900 556.358276,629.440796 C556.358276,629.440796 556.298584,629.674988 556.139404,629.350586 C555.073853,628.551392 554.167480,628.076599 553.261169,627.601807 C553.261169,627.601807 553.199036,627.725952 553.060181,627.445435 C551.612000,626.536072 550.302612,625.907166 548.993286,625.278259 C548.993286,625.278259 548.673401,624.962036 548.273315,624.640381 C544.014465,622.075989 540.155701,619.833313 536.296936,617.590637 C536.296936,617.590637 536.208923,617.739868 536.069580,617.429810 C532.286926,615.104675 528.643616,613.089600 525.000305,611.074524 C525.000305,611.074524 524.847595,610.822266 524.500488,610.548096 C522.768982,609.543945 521.384644,608.813965 520.000305,608.083984 C518.977173,607.384705 517.954102,606.685364 516.418152,605.664551 C514.715332,604.723999 513.525330,604.105042 512.335327,603.486084 C512.335327,603.486145 512.285645,603.605103 512.108276,603.340271 C508.293091,601.048096 504.655243,599.020752 501.017365,596.993469 C501.017365,596.993469 501.004791,596.995117 500.829346,596.739624 C500.106140,596.348999 499.558411,596.213867 499.010681,596.078735 C499.010681,596.078735 498.570007,595.993103 498.249268,595.674438 C497.286560,594.911682 496.644623,594.467651 496.002686,594.023621 C495.563110,593.688354 495.123535,593.353149 494.236694,592.722656 C493.222137,592.211731 492.654907,591.996033 492.087677,591.780273 C492.087677,591.780273 492.105347,591.871948 491.950134,591.597046 C490.639893,590.713074 489.484833,590.103943 488.329773,589.494812 C488.329773,589.494812 488.270813,589.627625 488.111267,589.353760 C487.011108,588.600952 486.070526,588.121887 485.129944,587.642883 C485.013885,587.317627 484.788269,587.113342 484.028870,586.737915 C481.195862,585.124817 478.786987,583.803894 476.378143,582.483032 C476.378143,582.483032 476.166534,582.836853 476.077393,582.434204 C474.673584,581.334778 473.358856,580.638123 472.044128,579.941467 C472.044128,579.941467 472.016083,580.005249 471.826447,579.723999 C469.888580,578.498840 468.140350,577.554810 466.392120,576.610840 C466.392120,576.610840 466.143402,576.973694 466.066040,576.531494 C464.659637,575.421143 463.330566,574.753052 462.001495,574.085022 C461.507599,573.746338 461.013733,573.407654 460.031372,572.761597 C454.046387,569.276062 448.549866,566.098022 443.053314,562.919983 C443.053314,562.919983 443.017883,562.997559 442.848572,562.694275 C439.167847,560.430725 435.656464,558.470398 432.145050,556.510132 C429.020966,554.716858 425.896912,552.923584 422.397186,550.605957 C422.038239,547.714661 422.054932,545.347778 422.071625,542.980835 C422.142029,542.538391 422.212433,542.096008 422.279755,540.959717 C422.202911,539.505859 422.129150,538.745972 422.055359,537.986023 C422.129700,537.235229 422.204010,536.484436 422.267761,534.940491 C422.178925,532.095215 422.100708,530.043030 422.022461,527.990906 C422.116272,506.631317 422.210083,485.271759 422.316284,463.000488 C422.254883,457.401886 422.181122,452.714996 422.216156,447.652527 C422.254456,446.505646 422.183929,445.734344 422.204163,444.732239 C422.294891,444.501404 422.123718,444.035889 422.234497,443.598145 C422.263824,440.761627 422.182404,438.362854 422.216949,435.509888 C422.251190,419.711792 422.169495,404.367889 422.197662,388.582489 C422.236816,385.424194 422.166077,382.707397 422.214661,379.567963 C422.261871,377.108826 422.189789,375.072327 422.232849,372.576263 C422.275696,363.407623 422.203369,354.698517 422.242737,345.665466 C422.277802,344.897644 422.201141,344.453796 422.238617,343.627625 C422.262482,341.431885 422.172211,339.618439 422.154785,337.543518 C421.967194,337.114746 421.706787,336.947510 421.787872,336.616943 C422.120361,335.957703 422.111359,335.461823 422.217163,334.543701 C421.774567,329.243011 422.656769,325.380859 427.702545,322.812683 C431.508331,320.875641 434.678711,317.690186 438.352936,315.031616 C438.573975,315.002838 438.993835,314.853027 439.347260,314.875000 C495.213104,281.939819 550.725525,248.982666 607.112549,215.506256 C607.433350,219.085297 607.690552,221.954681 607.558167,225.045959 C607.040466,232.893829 606.402222,240.555847 606.937622,248.134949 C607.408386,254.799576 605.999451,259.739899 599.172485,262.554138 C592.185425,266.745209 585.520569,270.796234 578.508179,274.912994 C552.421326,290.279083 526.667297,305.554810 500.948975,320.890411 C488.439301,328.349823 475.996399,335.921173 463.244873,343.560822 C462.129333,344.228546 461.292206,344.777283 460.149109,345.678955 C459.730774,346.682770 459.520691,347.333618 459.520050,347.984619 C459.462128,407.207703 459.408813,466.430786 459.446106,525.653809 C459.446991,527.068115 460.472778,528.481689 461.189819,530.125427 C461.866180,530.593567 462.373291,530.831848 463.066589,531.344116 C464.836578,532.399414 466.420319,533.180786 468.007233,533.987915 C468.010406,534.013611 468.053711,533.985107 468.223328,534.230896 C469.264252,534.926086 470.135620,535.375488 471.207428,535.973999 C471.407898,536.123169 471.901428,536.201843 472.008911,536.420959 C472.367950,536.875366 472.665955,536.988647 473.171906,537.175903 C473.496399,537.418152 473.659393,537.464294 474.084900,537.720581 C478.437836,540.290344 482.545319,542.620911 486.616089,545.013977 C526.443298,568.426880 566.255249,591.865479 606.095459,615.256287 C613.188538,619.420776 620.391113,623.398621 628.306213,627.896240 C628.153931,625.241333 628.060852,623.618225 628.046143,621.747986 C628.073547,621.335632 628.022583,621.170471 628.077759,620.637390 C628.120361,619.512939 628.056824,618.756348 628.091614,617.540100 C628.128906,594.718933 628.067810,572.357422 628.113220,549.629395 C628.148315,548.509583 628.076965,547.756470 628.103027,546.543091 C628.134033,526.720703 628.067688,507.358582 628.087646,487.749451 C628.119080,487.336884 628.064148,487.171295 628.108521,486.545715 C628.225769,472.000732 628.243591,457.915741 628.530762,443.657745 C650.201416,430.655090 671.602600,417.825470 693.315552,404.952515 C693.927795,404.628693 694.228271,404.348145 694.816895,404.032257 C695.739868,403.565033 696.374756,403.133209 697.323730,402.633636 C698.438599,402.322144 699.239380,402.078430 700.050903,402.232361 C700.077576,403.420898 700.093506,404.211761 700.010254,405.462097 C699.951782,417.948212 699.992615,429.974823 700.033386,442.001465 z"/><path fill="#fff" opacity="1.000000" stroke="none" d=" M721.741943,391.553528 C721.397949,387.905273 723.321289,386.315247 725.970032,384.762817 C746.218323,372.895691 766.381714,360.883850 786.561584,348.900177 C787.521912,348.329926 788.388184,347.601105 789.853577,346.546509 C782.672668,342.391418 775.966797,338.504730 769.254700,334.628693 C754.262817,325.971344 739.251282,317.347565 724.307495,308.608093 C723.193298,307.956482 721.821533,306.501587 721.806763,305.403473 C721.632751,292.464172 721.694946,279.521729 721.694946,265.561035 C737.277649,274.598053 752.047607,283.163788 767.164062,291.820618 C789.175049,304.446136 810.847778,316.966522 832.500488,329.521393 C841.985962,335.021393 851.430542,340.592010 861.651428,346.574036 C815.134155,374.056732 769.242676,401.169708 722.839111,428.331543 C722.109558,426.935944 721.892090,425.491486 721.674683,424.047028 C721.714783,420.006042 721.754883,415.965027 721.801880,411.165009 C721.748779,408.233582 721.688721,406.061188 721.628662,403.888794 C721.694397,399.896637 721.760071,395.904449 721.741943,391.553528 z"/><path fill="#fff" opacity="1.000000" stroke="none" d=" M606.878113,568.963501 C596.242004,562.853638 585.581665,556.785645 574.976013,550.623230 C561.915588,543.034363 548.900696,535.367004 535.302063,527.380737 C531.275146,525.059021 527.812378,523.090088 524.106445,520.788818 C523.111755,520.151611 522.360229,519.846741 521.491333,519.283691 C520.020996,518.312378 518.667908,517.599304 517.314819,516.886169 C516.153442,516.157837 514.992126,515.429504 513.274780,514.344788 C509.204681,512.302551 505.690643,510.616699 502.176636,508.930786 C501.506744,505.900055 500.836823,502.869293 500.181213,498.961639 C500.261993,482.628143 500.431580,467.171204 500.372284,451.715118 C500.265228,423.811340 500.021332,395.908112 499.915497,367.688812 C500.058777,366.942841 500.121185,366.512695 500.503448,365.943054 C505.434601,363.104645 510.045837,360.405792 515.002014,357.660614 C527.120056,350.513397 538.885925,343.400452 550.668030,336.314392 C568.281860,325.720978 585.902771,315.139374 603.536560,304.579254 C604.748413,303.853577 606.289062,301.820740 606.987549,305.480560 C606.860046,317.359406 606.979797,328.783417 606.662354,340.195251 C606.599121,342.468231 604.863953,344.694702 603.932495,346.961060 C603.965271,346.979492 603.949402,346.906036 603.639343,346.968933 C602.483704,347.636932 601.638123,348.242035 600.837830,348.862549 C600.883118,348.877991 600.843811,348.790741 600.505005,348.880920 C590.373657,354.925812 580.581055,360.880554 570.788452,366.835266 C570.788452,366.835266 570.874817,366.869202 570.518311,366.905365 C568.839355,367.824066 567.516846,368.706635 566.194336,369.589172 C564.953552,370.265289 563.712708,370.941376 561.913208,371.872986 C560.463745,372.719147 559.573059,373.309753 558.682373,373.900391 C558.200806,374.095398 557.719238,374.290344 556.799927,374.785889 C555.512268,375.679688 554.662354,376.272827 553.812439,376.865967 C553.812439,376.865967 553.888977,376.894135 553.601929,376.905090 C552.870728,377.262665 552.426636,377.609253 551.635742,378.015503 C548.418945,379.741913 545.646912,381.616516 542.655579,383.025726 C538.375549,385.041992 536.864929,388.030823 536.893921,392.857269 C537.069763,422.098663 537.001831,451.342621 536.783813,480.583984 C536.752991,484.720520 537.844116,487.244537 541.953918,488.136810 C558.578796,498.014404 575.199219,507.899658 591.831482,517.764832 C596.523682,520.547913 601.250793,523.272034 606.412048,526.511292 C606.867493,540.987366 606.872803,554.975464 606.878113,568.963501 z"/>
</svg>
