<svg width="32" xmlns="http://www.w3.org/2000/svg" height="32" id="screenshot-31f3b04e-2215-8032-8007-e5f2429052c3" viewBox="0 0 32 32" xmlns:xlink="http://www.w3.org/1999/xlink" fill="none" version="1.1"><g id="shape-31f3b04e-2215-8032-8007-e5f2429052c3"><defs><clipPath id="frame-clip-31f3b04e-2215-8032-8007-e5f2429052c3-render-1" class="frame-clip frame-clip-def"><rect rx="10" ry="10" x="0" y="0" width="32" height="31.999999999999943" transform="matrix(1.000000, 0.000000, 0.000000, 1.000000, 0.000000, 0.000000)"/></clipPath></defs><g class="frame-container-wrapper"><g class="frame-container-blur"><g class="frame-container-shadows"><g clip-path="url(#frame-clip-31f3b04e-2215-8032-8007-e5f2429052c3-render-1)" fill="none"><g class="fills" id="fills-31f3b04e-2215-8032-8007-e5f2429052c3"><rect width="32" height="31.999999999999943" class="frame-background" x="0" transform="matrix(1.000000, 0.000000, 0.000000, 1.000000, 0.000000, 0.000000)" style="fill: rgb(1, 81, 56); fill-opacity: 1;" ry="10" rx="10" y="0"/></g><g class="frame-children"><g id="shape-31f3b04e-2215-8032-8007-e5f32ef8cfae" height="24" width="24" rx="0" ry="0" style="fill: rgb(0, 0, 0);"><g id="shape-31f3b04e-2215-8032-8007-e5f32efffa79" style="display: none;"><g class="fills" id="fills-31f3b04e-2215-8032-8007-e5f32efffa79"><rect width="32" height="32" x="0" transform="matrix(1.000000, 0.000000, 0.000000, 1.000000, 0.000000, 0.000000)" style="fill: none;" ry="0" fill="none" rx="0" y="0"/></g></g><g id="shape-31f3b04e-2215-8032-8007-e5f32f055e7a"><g class="fills" id="fills-31f3b04e-2215-8032-8007-e5f32f055e7a"><path d="M10.66650390625,24L12.66650390625,24L12.66650390625,21.333343505859375L15.33349609375,21.333343505859375L15.33349609375,19.333343505859375L12.66650390625,19.333343505859375L12.66650390625,16.666656494140625L10.66650390625,16.666656494140625L10.66650390625,19.333343505859375L8,19.333343505859375L8,21.333343505859375L10.66650390625,21.333343505859375L10.66650390625,24ZM17.33349609375,23L24,23L24,21L17.33349609375,21L17.33349609375,23ZM17.33349609375,19.666656494140625L24,19.666656494140625L24,17.666656494140625L17.33349609375,17.666656494140625L17.33349609375,19.666656494140625ZM18.7998046875,14.600006103515625L20.66650390625,12.73333740234375L22.533203125,14.600006103515625L23.93310546875,13.20001220703125L22.06689453125,11.26666259765625L23.93310546875,9.399993896484375L22.533203125,8L20.66650390625,9.866668701171875L18.7998046875,8L17.39990234375,9.399993896484375L19.2666015625,11.26666259765625L17.39990234375,13.20001220703125L18.7998046875,14.600006103515625ZM8.33349609375,12.26666259765625L15,12.26666259765625L15,10.26666259765625L8.33349609375,10.26666259765625L8.33349609375,12.26666259765625ZM6.66650390625,28C5.93310546875,28,5.3056640625,27.7388916015625,4.783203125,27.2166748046875C4.26123046875,26.6944580078125,4,26.066680908203125,4,25.333343505859375L4,6.666656494140625C4,5.933319091796875,4.26123046875,5.3055419921875,4.783203125,4.7833251953125C5.3056640625,4.2611083984375,5.93310546875,4,6.66650390625,4L25.33349609375,4C26.06689453125,4,26.6943359375,4.2611083984375,27.216796875,4.7833251953125C27.73876953125,5.3055419921875,28,5.933319091796875,28,6.666656494140625L28,25.333343505859375C28,26.066680908203125,27.73876953125,26.6944580078125,27.216796875,27.2166748046875C26.6943359375,27.7388916015625,26.06689453125,28,25.33349609375,28L6.66650390625,28ZM6.66650390625,25.333343505859375L25.33349609375,25.333343505859375L25.33349609375,6.666656494140625L6.66650390625,6.666656494140625L6.66650390625,25.333343505859375ZM6.66650390625,6.666656494140625L6.66650390625,25.333343505859375L6.66650390625,6.666656494140625Z" style="fill: rgb(227, 227, 227);"/></g></g></g></g></g></g></g></g></g></svg>